<svg width="24" height="24" viewBox="0 0 24 24" fill="none" xmlns="http://www.w3.org/2000/svg">
<g clip-path="url(#clip0_861_930)">
<path d="M17.1431 6.00028V2.57171C17.1431 2.11705 16.9625 1.68102 16.641 1.35952C16.3195 1.03803 15.8835 0.857422 15.4289 0.857422H8.57171C8.11705 0.857422 7.68102 1.03803 7.35952 1.35952C7.03803 1.68102 6.85742 2.11705 6.85742 2.57171V6.00028M21.4289 6.00028H2.57171C2.11705 6.00028 1.68102 6.18089 1.35952 6.50238C1.03803 6.82387 0.857422 7.25991 0.857422 7.71456V21.4289C0.857422 21.8835 1.03803 22.3195 1.35952 22.641C1.68102 22.9625 2.11705 23.1431 2.57171 23.1431H21.4289C21.8835 23.1431 22.3195 22.9625 22.641 22.641C22.9625 22.3195 23.1431 21.8835 23.1431 21.4289V7.71456C23.1431 7.25991 22.9625 6.82387 22.641 6.50238C22.3195 6.18089 21.8835 6.00028 21.4289 6.00028Z" stroke="#E8E8E8" stroke-width="1.71429" stroke-linecap="round" stroke-linejoin="round"/>
</g>
<defs>
<clipPath id="clip0_861_930">
<rect width="24" height="24" fill="white"/>
</clipPath>
</defs>
</svg>
