<svg width="24" height="24" viewBox="0 0 24 24" fill="none" xmlns="http://www.w3.org/2000/svg">
<path d="M19.9996 9.99979C19.9996 9.73457 19.8942 9.48022 19.7067 9.29268C19.5192 9.10514 19.2648 8.99979 18.9996 8.99979C18.7344 8.99979 18.48 9.10514 18.2925 9.29268C18.1049 9.48022 17.9996 9.73457 17.9996 9.99979H19.9996ZM5.99959 9.99979C5.99959 9.73457 5.89424 9.48022 5.7067 9.29268C5.51916 9.10514 5.26481 8.99979 4.99959 8.99979C4.73438 8.99979 4.48002 9.10514 4.29249 9.29268C4.10495 9.48022 3.99959 9.73457 3.99959 9.99979H5.99959ZM20.2926 12.7068C20.4812 12.8889 20.7338 12.9897 20.996 12.9875C21.2582 12.9852 21.509 12.88 21.6944 12.6946C21.8798 12.5092 21.985 12.2584 21.9873 11.9962C21.9895 11.734 21.8888 11.4814 21.7066 11.2928L20.2926 12.7068ZM11.9996 2.99979L12.7066 2.29279C12.5191 2.10532 12.2648 2 11.9996 2C11.7344 2 11.4801 2.10532 11.2926 2.29279L11.9996 2.99979ZM2.29259 11.2928C2.19708 11.385 2.1209 11.4954 2.06849 11.6174C2.01608 11.7394 1.9885 11.8706 1.98734 12.0034C1.98619 12.1362 2.01149 12.2678 2.06177 12.3907C2.11205 12.5136 2.18631 12.6253 2.2802 12.7192C2.37409 12.8131 2.48574 12.8873 2.60864 12.9376C2.73154 12.9879 2.86321 13.0132 2.99599 13.012C3.12877 13.0109 3.25999 12.9833 3.382 12.9309C3.504 12.8785 3.61435 12.8023 3.70659 12.7068L2.29259 11.2928ZM6.99959 21.9998H16.9996V19.9998H6.99959V21.9998ZM19.9996 18.9998V9.99979H17.9996V18.9998H19.9996ZM5.99959 18.9998V9.99979H3.99959V18.9998H5.99959ZM21.7066 11.2928L12.7066 2.29279L11.2926 3.70679L20.2926 12.7068L21.7066 11.2928ZM11.2926 2.29279L2.29259 11.2928L3.70659 12.7068L12.7066 3.70679L11.2926 2.29279ZM16.9996 21.9998C17.7952 21.9998 18.5583 21.6837 19.1209 21.1211C19.6835 20.5585 19.9996 19.7954 19.9996 18.9998H17.9996C17.9996 19.265 17.8942 19.5194 17.7067 19.7069C17.5192 19.8944 17.2648 19.9998 16.9996 19.9998V21.9998ZM6.99959 19.9998C6.73438 19.9998 6.48002 19.8944 6.29249 19.7069C6.10495 19.5194 5.99959 19.265 5.99959 18.9998H3.99959C3.99959 19.7954 4.31566 20.5585 4.87827 21.1211C5.44088 21.6837 6.20394 21.9998 6.99959 21.9998V19.9998Z" fill="white"/>
</svg>
