<svg width="24" height="24" viewBox="0 0 24 24" fill="none" xmlns="http://www.w3.org/2000/svg">
<path d="M10.5 1.60547V3.12497C8.2799 3.50708 6.28372 4.70762 4.90552 6.4896C3.52732 8.27157 2.86726 10.5055 3.05563 12.7503C3.244 14.9952 4.26713 17.0879 5.92302 18.6152C7.57892 20.1426 9.74726 20.9937 12 21.0005C14.127 21.0002 16.1851 20.2469 17.8097 18.8741C19.4343 17.5012 20.5204 15.5976 20.8755 13.5005H22.3935C22.0068 16.1218 20.6436 18.5001 18.5772 20.1587C16.5107 21.8172 13.8938 22.6335 11.2508 22.4437C8.60793 22.254 6.1344 21.0723 4.32608 19.1356C2.51775 17.1988 1.50827 14.6502 1.5 12.0005C1.49999 9.47529 2.40974 7.03464 4.06261 5.12557C5.71548 3.21651 8.00081 1.96684 10.5 1.60547Z" fill="#E8E8E8"/>
<path d="M13.5 2.27981V10.4998H21.72C21.5426 8.37908 20.6196 6.38978 19.1148 4.88497C17.61 3.38016 15.6207 2.45717 13.5 2.27981ZM12 1.49981V0.776807C13.5014 0.669315 15.0084 0.885907 16.4188 1.4119C17.8292 1.93789 19.11 2.76099 20.1744 3.82538C21.2388 4.88978 22.0619 6.17059 22.5879 7.58098C23.1139 8.99137 23.3305 10.4984 23.223 11.9998H12V1.49981Z" fill="#E8E8E8"/>
</svg>
