<svg width="24" height="24" viewBox="0 0 24 24" fill="none" xmlns="http://www.w3.org/2000/svg">
<path d="M7.73537 19.6036L14.6519 12.5761C14.8036 12.4227 14.8886 12.2158 14.8886 12.0001C14.8886 11.7844 14.8036 11.5774 14.6519 11.4241L7.73687 4.39508C7.58597 4.24042 7.5015 4.0329 7.5015 3.81683C7.5015 3.60075 7.58597 3.39323 7.73687 3.23858C7.81094 3.1626 7.89946 3.10223 7.99722 3.061C8.09499 3.01977 8.20002 2.99854 8.30612 2.99854C8.41222 2.99854 8.51725 3.01977 8.61502 3.061C8.71278 3.10223 8.8013 3.1626 8.87537 3.23858L15.7904 10.2646C16.2448 10.7274 16.4993 11.35 16.4993 11.9986C16.4993 12.6471 16.2448 13.2698 15.7904 13.7326L8.87537 20.7586C8.80128 20.8348 8.71266 20.8954 8.61476 20.9367C8.51686 20.9781 8.41165 20.9994 8.30537 20.9994C8.19909 20.9994 8.09388 20.9781 7.99598 20.9367C7.89808 20.8954 7.80946 20.8348 7.73537 20.7586C7.58447 20.6039 7.5 20.3964 7.5 20.1803C7.5 19.9642 7.58447 19.7567 7.73537 19.6021" fill="#5C6342"/>
</svg>
