<svg width="24" height="24" viewBox="0 0 24 24" fill="none" xmlns="http://www.w3.org/2000/svg">
<path d="M12.1316 15.4038C12.5733 15.4038 13.0108 15.3168 13.4189 15.1477C13.8271 14.9787 14.1979 14.7309 14.5103 14.4185C14.8227 14.1061 15.0705 13.7353 15.2395 13.3271C15.4086 12.919 15.4956 12.4815 15.4956 12.0398C15.4956 11.598 15.4086 11.1606 15.2395 10.7524C15.0705 10.3443 14.8227 9.97345 14.5103 9.66107C14.1979 9.3487 13.8271 9.10091 13.4189 8.93185C13.0108 8.76279 12.5733 8.67578 12.1316 8.67578C11.2394 8.67578 10.3837 9.0302 9.75287 9.66107C9.122 10.2919 8.76758 11.1476 8.76758 12.0398C8.76758 12.932 9.122 13.7876 9.75287 14.4185C10.3837 15.0494 11.2394 15.4038 12.1316 15.4038Z" stroke="#E8E8E8" stroke-width="1.5" stroke-linecap="round" stroke-linejoin="round"/>
<path d="M20.9826 15.094C20.5857 16.2331 19.974 17.2855 19.1806 18.194L17.0566 17.712C16.2512 18.4347 15.2941 18.9677 14.2556 19.272L13.6816 21.351C13.1436 21.4477 12.5982 21.4975 12.0516 21.5C11.3678 21.4998 10.6862 21.4227 10.0196 21.27L9.4106 19.124C8.50271 18.79 7.66828 18.283 6.9536 17.631L4.8536 18.171C4.01977 17.1985 3.39452 16.0651 3.0166 14.841L4.5666 13.119C4.42481 12.2384 4.44821 11.3391 4.6356 10.467L3.1066 8.87202C3.54986 7.62034 4.25447 6.47735 5.1736 5.51902L7.3436 6.05902C7.94096 5.57969 8.60666 5.1924 9.3186 4.91002L9.8926 2.78602C10.6013 2.60129 11.3302 2.50489 12.0626 2.49902C12.6476 2.49902 13.2326 2.55302 13.8076 2.65902L14.3586 4.77202C15.1886 5.04102 15.9666 5.45202 16.6546 5.98902L18.8366 5.42602C19.7176 6.31271 20.4122 7.36674 20.8796 8.52602L19.3996 10.133C19.6801 11.2343 19.7034 12.3853 19.4676 13.497L20.9826 15.094Z" stroke="#E8E8E8" stroke-width="1.5" stroke-linecap="round" stroke-linejoin="round"/>
</svg>
